<?xml version="1.0" encoding="iso-8859-1"?>
<svg fill="#000000" height="800px" width="800px" version="1.1" id="Layer_1" xmlns="http://www.w3.org/2000/svg" xmlns:xlink="http://www.w3.org/1999/xlink" 
	 viewBox="0 0 512 512" xml:space="preserve">
<g>
	<g>
		<path d="M256,192h42.667H384h106.667c11.782,0,21.333-9.551,21.333-21.333V21.333C512,9.551,502.449,0,490.667,0H384h-85.333H256
			C114.618,0,0,114.618,0,256s114.618,256,256,256h42.667H384h106.667c11.782,0,21.333-9.551,21.333-21.333V341.333
			c0-11.782-9.551-21.333-21.333-21.333H384h-85.333H256c-35.258,0-64-28.742-64-64S220.742,192,256,192z M469.333,149.333h-64
			V42.667h64V149.333z M362.667,42.667v106.667H320V42.667H362.667z M469.333,469.333h-64V362.667h64V469.333z M362.667,362.667
			v106.667H320V362.667H362.667z M256,362.667h21.333v106.667H256c-117.818,0-213.333-95.515-213.333-213.333
			S138.182,42.667,256,42.667h21.333v106.667H256c-58.822,0-106.667,47.845-106.667,106.667S197.178,362.667,256,362.667z"/>
	</g>
</g>
</svg>